<?xml version="1.0" encoding="UTF-8"?>
<svg xmlns="http://www.w3.org/2000/svg" viewBox="0 0 64 64" width="64px" height="64px">
<g id="surface31576475">
<path style=" stroke:none;fill-rule:nonzero;fill:rgb(100%,100%,100%);fill-opacity:1;" d="M 54 48 L 38 48 C 37.597656 48 37.230469 47.757812 37.074219 47.382812 C 36.921875 47.007812 37.007812 46.578125 37.292969 46.292969 L 41 42.585938 L 41 27.191406 L 32.929688 47.371094 C 32.777344 47.75 32.410156 48 32 48 L 27 48 C 26.578125 48 26.203125 47.734375 26.058594 47.339844 L 19 27.730469 L 19 40.695312 L 22.832031 46.445312 C 23.035156 46.753906 23.054688 47.144531 22.882812 47.472656 C 22.707031 47.796875 22.367188 48 22 48 L 10 48 C 9.632812 48 9.292969 47.796875 9.117188 47.472656 C 8.945312 47.148438 8.964844 46.753906 9.167969 46.445312 L 13 40.695312 L 13 17.414062 L 9 13.414062 C 8.425781 12.839844 8.257812 11.984375 8.566406 11.234375 C 8.875 10.484375 9.601562 10 10.414062 10 L 22 10 C 22.390625 10 22.742188 10.226562 22.90625 10.582031 L 32.464844 31.285156 L 41.078125 10.613281 C 41.230469 10.242188 41.597656 10 42 10 L 53.238281 10 C 54.089844 10 54.828125 10.519531 55.117188 11.320312 C 55.40625 12.121094 55.171875 12.992188 54.515625 13.535156 L 51 16.46875 L 51 42.585938 L 54.707031 46.292969 C 54.992188 46.578125 55.078125 47.007812 54.925781 47.382812 C 54.769531 47.757812 54.402344 48 54 48 Z M 40.414062 46 L 51.585938 46 L 49.292969 43.707031 C 49.105469 43.519531 49 43.265625 49 43 L 49 16 C 49 15.703125 49.132812 15.421875 49.359375 15.230469 L 53.238281 12 L 42.667969 12 L 33.433594 34.160156 C 33.28125 34.523438 32.925781 34.765625 32.53125 34.773438 C 32.109375 34.777344 31.769531 34.554688 31.601562 34.191406 L 21.359375 12 L 10.414062 12 L 14.707031 16.292969 C 14.894531 16.480469 15 16.734375 15 17 L 15 41 C 15 41.195312 14.941406 41.390625 14.832031 41.554688 L 11.867188 46 L 20.132812 46 L 17.167969 41.554688 C 17.058594 41.390625 17 41.195312 17 41 L 17 22 C 17 21.515625 17.351562 21.097656 17.828125 21.015625 C 18.300781 20.933594 18.773438 21.203125 18.941406 21.660156 L 27.703125 46 L 31.324219 46 L 41.070312 21.628906 C 41.25 21.183594 41.722656 20.929688 42.1875 21.019531 C 42.660156 21.109375 43 21.519531 43 22 L 43 43 C 43 43.265625 42.894531 43.519531 42.707031 43.707031 Z M 9.925781 55 C 9.371094 55 8.925781 54.550781 8.925781 54 L 8.925781 52 C 8.925781 51.449219 9.371094 51 9.925781 51 C 10.476562 51 10.925781 51.449219 10.925781 52 L 10.925781 54 C 10.925781 54.550781 10.476562 55 9.925781 55 Z M 14.828125 55 C 14.277344 55 13.828125 54.550781 13.828125 54 L 13.828125 52 C 13.828125 51.449219 14.277344 51 14.828125 51 C 15.382812 51 15.828125 51.449219 15.828125 52 L 15.828125 54 C 15.828125 54.550781 15.382812 55 14.828125 55 Z M 19.734375 55 C 19.183594 55 18.734375 54.550781 18.734375 54 L 18.734375 52 C 18.734375 51.449219 19.183594 51 19.734375 51 C 20.289062 51 20.734375 51.449219 20.734375 52 L 20.734375 54 C 20.734375 54.550781 20.289062 55 19.734375 55 Z M 24.640625 55 C 24.089844 55 23.640625 54.550781 23.640625 54 L 23.640625 52 C 23.640625 51.449219 24.089844 51 24.640625 51 C 25.195312 51 25.640625 51.449219 25.640625 52 L 25.640625 54 C 25.640625 54.550781 25.195312 55 24.640625 55 Z M 29.546875 55 C 28.992188 55 28.546875 54.550781 28.546875 54 L 28.546875 52 C 28.546875 51.449219 28.992188 51 29.546875 51 C 30.101562 51 30.546875 51.449219 30.546875 52 L 30.546875 54 C 30.546875 54.550781 30.101562 55 29.546875 55 Z M 34.453125 55 C 33.898438 55 33.453125 54.550781 33.453125 54 L 33.453125 52 C 33.453125 51.449219 33.898438 51 34.453125 51 C 35.007812 51 35.453125 51.449219 35.453125 52 L 35.453125 54 C 35.453125 54.550781 35.007812 55 34.453125 55 Z M 39.359375 55 C 38.804688 55 38.359375 54.550781 38.359375 54 L 38.359375 52 C 38.359375 51.449219 38.804688 51 39.359375 51 C 39.910156 51 40.359375 51.449219 40.359375 52 L 40.359375 54 C 40.359375 54.550781 39.910156 55 39.359375 55 Z M 44.265625 55 C 43.710938 55 43.265625 54.550781 43.265625 54 L 43.265625 52 C 43.265625 51.449219 43.710938 51 44.265625 51 C 44.816406 51 45.265625 51.449219 45.265625 52 L 45.265625 54 C 45.265625 54.550781 44.816406 55 44.265625 55 Z M 49.171875 55 C 48.617188 55 48.171875 54.550781 48.171875 54 L 48.171875 52 C 48.171875 51.449219 48.617188 51 49.171875 51 C 49.722656 51 50.171875 51.449219 50.171875 52 L 50.171875 54 C 50.171875 54.550781 49.722656 55 49.171875 55 Z M 54.074219 55 C 53.523438 55 53.074219 54.550781 53.074219 54 L 53.074219 52 C 53.074219 51.449219 53.523438 51 54.074219 51 C 54.628906 51 55.074219 51.449219 55.074219 52 L 55.074219 54 C 55.074219 54.550781 54.628906 55 54.074219 55 Z M 54.074219 55 "/>
</g>
</svg>
